# xmcd
#
# Track frame offsets:
# 150
# 17325
# 35537
# 55126
# 69345
# 86976
# 110258
# 126267
# 143682
# 162750
#
# Disc length: 2389 seconds
#
# Revision: 2
# Processed by: cddbd v1.5.2PL0 Copyright (c) Steve Scherf et al.
# Submitted via: CedeCatalogueitor 2.6.0.6 http://personales.ya.com/cdcatalogueitor
#
DISCID=7c09530a
DTITLE=CATHY CLARET - La Chica Del Viento
DYEAR=2004
DGENRE=
TTITLE0=Así Será
TTITLE1=Toi
TTITLE2=La Chica Del Viento
TTITLE3=Eloge De La Paresse ( Con Kiko Veneno )
TTITLE4=Sentimientos
TTITLE5=No Me Importa
TTITLE6=Petit Grain De Sable
TTITLE7=Esperanza
TTITLE8=Detras De Todo
TTITLE9=Comme Une Bossa-nova
EXTD=
EXTT0=
EXTT1=
EXTT2=
EXTT3=
EXTT4=
EXTT5=
EXTT6=
EXTT7=
EXTT8=
EXTT9=
PLAYORDER=
